<mxfile host="app.diagrams.net" modified="2022-10-15T06:00:25.329Z" agent="5.0 (Windows NT 10.0; Win64; x64) AppleWebKit/537.36 (KHTML, like Gecko) Chrome/106.0.0.0 Safari/537.36" etag="lXvaQ7IcXqcrOVOnqEuS" version="20.4.0" type="github">
  <diagram id="4G9RIlN--iZPwRPhNNGG" name="第 1 页">
    <mxGraphModel dx="1209" dy="642" grid="1" gridSize="10" guides="1" tooltips="1" connect="1" arrows="1" fold="1" page="1" pageScale="1" pageWidth="827" pageHeight="1169" math="0" shadow="0">
      <root>
        <mxCell id="0" />
        <mxCell id="1" parent="0" />
        <mxCell id="h9nOrwKNl1azJ6t85lzm-17" style="edgeStyle=orthogonalEdgeStyle;rounded=0;orthogonalLoop=1;jettySize=auto;html=1;exitX=0.5;exitY=0;exitDx=0;exitDy=0;entryX=0.5;entryY=0;entryDx=0;entryDy=0;" edge="1" parent="1" source="h9nOrwKNl1azJ6t85lzm-1" target="h9nOrwKNl1azJ6t85lzm-2">
          <mxGeometry relative="1" as="geometry" />
        </mxCell>
        <mxCell id="h9nOrwKNl1azJ6t85lzm-21" value="发送消息 获得cookie" style="edgeLabel;html=1;align=center;verticalAlign=middle;resizable=0;points=[];" vertex="1" connectable="0" parent="h9nOrwKNl1azJ6t85lzm-17">
          <mxGeometry x="-0.16" y="1" relative="1" as="geometry">
            <mxPoint as="offset" />
          </mxGeometry>
        </mxCell>
        <mxCell id="h9nOrwKNl1azJ6t85lzm-1" value="前端" style="rounded=1;whiteSpace=wrap;html=1;" vertex="1" parent="1">
          <mxGeometry x="210" y="140" width="120" height="60" as="geometry" />
        </mxCell>
        <mxCell id="h9nOrwKNl1azJ6t85lzm-18" style="edgeStyle=orthogonalEdgeStyle;rounded=0;orthogonalLoop=1;jettySize=auto;html=1;exitX=1;exitY=0.5;exitDx=0;exitDy=0;entryX=0;entryY=0.5;entryDx=0;entryDy=0;" edge="1" parent="1" source="h9nOrwKNl1azJ6t85lzm-2" target="h9nOrwKNl1azJ6t85lzm-15">
          <mxGeometry relative="1" as="geometry" />
        </mxCell>
        <mxCell id="h9nOrwKNl1azJ6t85lzm-22" value="调用代理" style="edgeLabel;html=1;align=center;verticalAlign=middle;resizable=0;points=[];" vertex="1" connectable="0" parent="h9nOrwKNl1azJ6t85lzm-18">
          <mxGeometry x="0.2833" y="1" relative="1" as="geometry">
            <mxPoint as="offset" />
          </mxGeometry>
        </mxCell>
        <mxCell id="h9nOrwKNl1azJ6t85lzm-2" value="后端1&lt;br&gt;(提供api)" style="rounded=1;whiteSpace=wrap;html=1;" vertex="1" parent="1">
          <mxGeometry x="670" y="80" width="120" height="60" as="geometry" />
        </mxCell>
        <mxCell id="h9nOrwKNl1azJ6t85lzm-24" style="edgeStyle=orthogonalEdgeStyle;rounded=0;orthogonalLoop=1;jettySize=auto;html=1;entryX=1;entryY=0.5;entryDx=0;entryDy=0;" edge="1" parent="1" source="h9nOrwKNl1azJ6t85lzm-3" target="h9nOrwKNl1azJ6t85lzm-23">
          <mxGeometry relative="1" as="geometry" />
        </mxCell>
        <mxCell id="h9nOrwKNl1azJ6t85lzm-3" value="后端2&lt;br&gt;(websocket和定时任务)" style="rounded=1;whiteSpace=wrap;html=1;" vertex="1" parent="1">
          <mxGeometry x="670" y="260" width="120" height="60" as="geometry" />
        </mxCell>
        <mxCell id="h9nOrwKNl1azJ6t85lzm-8" value="" style="edgeStyle=orthogonalEdgeStyle;rounded=0;orthogonalLoop=1;jettySize=auto;html=1;" edge="1" parent="1" source="h9nOrwKNl1azJ6t85lzm-4" target="h9nOrwKNl1azJ6t85lzm-5">
          <mxGeometry relative="1" as="geometry" />
        </mxCell>
        <mxCell id="h9nOrwKNl1azJ6t85lzm-4" value="后台" style="rounded=1;whiteSpace=wrap;html=1;" vertex="1" parent="1">
          <mxGeometry x="60" y="260" width="120" height="60" as="geometry" />
        </mxCell>
        <mxCell id="h9nOrwKNl1azJ6t85lzm-9" value="" style="edgeStyle=orthogonalEdgeStyle;rounded=0;orthogonalLoop=1;jettySize=auto;html=1;" edge="1" parent="1" source="h9nOrwKNl1azJ6t85lzm-5" target="h9nOrwKNl1azJ6t85lzm-6">
          <mxGeometry relative="1" as="geometry" />
        </mxCell>
        <mxCell id="h9nOrwKNl1azJ6t85lzm-5" value="导入zalo账号到养号池" style="rounded=0;whiteSpace=wrap;html=1;" vertex="1" parent="1">
          <mxGeometry x="240" y="260" width="120" height="60" as="geometry" />
        </mxCell>
        <mxCell id="h9nOrwKNl1azJ6t85lzm-10" value="" style="edgeStyle=orthogonalEdgeStyle;rounded=0;orthogonalLoop=1;jettySize=auto;html=1;" edge="1" parent="1" source="h9nOrwKNl1azJ6t85lzm-6" target="h9nOrwKNl1azJ6t85lzm-7">
          <mxGeometry relative="1" as="geometry" />
        </mxCell>
        <mxCell id="h9nOrwKNl1azJ6t85lzm-6" value="一键登录&lt;br&gt;(获取cookie,开一个线程 定时任务 ping zalo服务器)" style="rounded=0;whiteSpace=wrap;html=1;" vertex="1" parent="1">
          <mxGeometry x="420" y="260" width="120" height="60" as="geometry" />
        </mxCell>
        <mxCell id="h9nOrwKNl1azJ6t85lzm-11" style="edgeStyle=orthogonalEdgeStyle;rounded=0;orthogonalLoop=1;jettySize=auto;html=1;entryX=0.5;entryY=1;entryDx=0;entryDy=0;" edge="1" parent="1" source="h9nOrwKNl1azJ6t85lzm-7" target="h9nOrwKNl1azJ6t85lzm-3">
          <mxGeometry relative="1" as="geometry">
            <Array as="points">
              <mxPoint x="730" y="460" />
            </Array>
          </mxGeometry>
        </mxCell>
        <mxCell id="h9nOrwKNl1azJ6t85lzm-12" value="websocket收到消息 推送消息" style="edgeLabel;html=1;align=center;verticalAlign=middle;resizable=0;points=[];" vertex="1" connectable="0" parent="h9nOrwKNl1azJ6t85lzm-11">
          <mxGeometry x="0.3393" y="2" relative="1" as="geometry">
            <mxPoint as="offset" />
          </mxGeometry>
        </mxCell>
        <mxCell id="h9nOrwKNl1azJ6t85lzm-7" value="zalo管理&lt;br&gt;(通过cookie建立和zalo服务器的websocket&lt;br&gt;定时任务 ping zalo服务器&lt;br&gt;websocket 心跳)" style="rounded=0;whiteSpace=wrap;html=1;" vertex="1" parent="1">
          <mxGeometry x="395" y="380" width="170" height="160" as="geometry" />
        </mxCell>
        <mxCell id="h9nOrwKNl1azJ6t85lzm-20" value="" style="edgeStyle=orthogonalEdgeStyle;rounded=0;orthogonalLoop=1;jettySize=auto;html=1;" edge="1" parent="1" source="h9nOrwKNl1azJ6t85lzm-15" target="h9nOrwKNl1azJ6t85lzm-19">
          <mxGeometry relative="1" as="geometry" />
        </mxCell>
        <mxCell id="h9nOrwKNl1azJ6t85lzm-15" value="代理" style="rounded=1;whiteSpace=wrap;html=1;" vertex="1" parent="1">
          <mxGeometry x="870" y="80" width="120" height="60" as="geometry" />
        </mxCell>
        <mxCell id="h9nOrwKNl1azJ6t85lzm-19" value="zalo服务器" style="rounded=1;whiteSpace=wrap;html=1;" vertex="1" parent="1">
          <mxGeometry x="1070" y="80" width="120" height="60" as="geometry" />
        </mxCell>
        <mxCell id="h9nOrwKNl1azJ6t85lzm-25" style="edgeStyle=orthogonalEdgeStyle;rounded=0;orthogonalLoop=1;jettySize=auto;html=1;entryX=1;entryY=0.5;entryDx=0;entryDy=0;" edge="1" parent="1" source="h9nOrwKNl1azJ6t85lzm-23" target="h9nOrwKNl1azJ6t85lzm-1">
          <mxGeometry relative="1" as="geometry" />
        </mxCell>
        <mxCell id="h9nOrwKNl1azJ6t85lzm-23" value="消息服务器" style="rounded=1;whiteSpace=wrap;html=1;" vertex="1" parent="1">
          <mxGeometry x="500" y="140" width="120" height="60" as="geometry" />
        </mxCell>
      </root>
    </mxGraphModel>
  </diagram>
</mxfile>
